<svg xmlns="http://www.w3.org/2000/svg" xmlns:xlink="http://www.w3.org/1999/xlink" width="700" zoomAndPan="magnify" viewBox="0 0 525 350.250003" height="467" preserveAspectRatio="xMidYMid meet" version="1.0"><defs><g/><clipPath id="id1"><path d="M 0.5625 0 L 524.4375 0 L 524.4375 349.5 L 0.5625 349.5 Z M 0.5625 0 " clip-rule="nonzero"/></clipPath></defs><g clip-path="url(#id1)"><path fill="#ffffff" d="M 0.5625 0 L 524.4375 0 L 524.4375 356.984375 L 0.5625 356.984375 Z M 0.5625 0 " fill-opacity="1" fill-rule="nonzero"/><path fill="#000000" d="M 0.5625 0 L 524.4375 0 L 524.4375 349.5 L 0.5625 349.5 Z M 0.5625 0 " fill-opacity="1" fill-rule="nonzero"/><path fill="#ffffff" d="M 0.5625 0 L 524.4375 0 L 524.4375 349.5 L 0.5625 349.5 Z M 0.5625 0 " fill-opacity="1" fill-rule="nonzero"/><path fill="#000000" d="M 0.5625 0 L 524.4375 0 L 524.4375 349.5 L 0.5625 349.5 Z M 0.5625 0 " fill-opacity="1" fill-rule="nonzero"/></g><g fill="#f7e625" fill-opacity="1"><g transform="translate(160.37737, 237.835183)"><g><path d="M 38.71875 0 L 147.023438 -140.289062 L 122.613281 -140.289062 L 14.027344 0 Z M 78.84375 -88.101562 L 38.441406 -140.289062 L 14.027344 -140.289062 L 66.21875 -72.390625 Z M 82.210938 -51.625 L 122.332031 0 L 147.023438 0 L 94.554688 -67.621094 Z M 82.210938 -51.625 "/></g></g></g><g fill="#f7e625" fill-opacity="1"><g transform="translate(311.157329, 284.58747)"><g><path d="M 9.511719 -98.078125 L 59.40625 -98.078125 L 59.40625 -109.148438 L 21.519531 -109.148438 Z M 72.660156 -11.070312 L 22.765625 -11.070312 L 22.765625 0 L 60.65625 0 Z M 21.207031 -96.519531 L 9.511719 -96.519531 L 9.511719 -11.695312 L 21.207031 0 Z M 60.96875 -12.628906 L 72.660156 -12.628906 L 72.660156 -97.453125 L 60.96875 -109.148438 Z M 60.96875 -12.628906 "/></g></g></g></svg>